<?xml version="1.0" encoding="utf-8"?>
<!-- Generator: Adobe Illustrator 18.1.0, SVG Export Plug-In . SVG Version: 6.00 Build 0)  -->
<svg version="1.1" id="Layer_2" xmlns="http://www.w3.org/2000/svg" xmlns:xlink="http://www.w3.org/1999/xlink" x="0px" y="0px"
	 viewBox="-666.4 459.1 500 500" enable-background="new -666.4 459.1 500 500" xml:space="preserve">
<g>
	<g>
		<polygon points="-486.1,740.8 -486.4,740.8 -500.1,685.8 -516.3,685.8 -530.1,740.8 -530.3,740.8 -543.1,685.8 -560.1,685.8 
			-538.7,762.9 -522.6,762.9 -508.4,710.2 -508.1,710.2 -493.9,762.9 -477.7,762.9 -456.3,685.8 -473.4,685.8 		"/>
		<path d="M-282.4,684.5c-20.3,0-32.5,13.2-32.5,35.2v9.3c0,22.3,12.1,35.1,32.4,35.1c20.4,0,30.6-12.4,30.6-26.3v-1.4h-15.3
			c0,8-4,14.2-15,14.2c-11.1,0-16.5-6.8-16.5-21.5v-9.3c0-14.5,5.5-21.8,16.4-21.8c10.2,0,15.1,6.8,15.1,14.4h15.3v-0.8
			C-251.9,696.6-263.3,684.5-282.4,684.5z"/>
		<path d="M-430.5,685.8l-24.9,77.1h16l5.6-19.4h24.4l5.5,19.4h17.1l-24.8-77.1H-430.5z M-430.4,731.6l8.8-30.6h0.2l8.7,30.6H-430.4
			z"/>
		<polygon points="-187.4,685.8 -187.4,716.7 -219,716.7 -219,685.8 -234.9,685.8 -234.9,762.9 -219,762.9 -219,730 -187.4,730 
			-187.4,762.9 -171.4,762.9 -171.4,685.8 		"/>
		<polygon points="-387.1,699.1 -364.1,699.1 -364.1,762.9 -348.2,762.9 -348.2,699.1 -325.2,699.1 -325.2,685.8 -387.1,685.8 		"/>
	</g>
	<g>
		<path d="M-598,684.5c-8.7-0.6-16,4.8-20.1,4.8c-4.2,0-10.6-4.7-17.4-4.6c-8.9,0.1-17.2,5.2-21.8,13.2c-9.3,16.1-2.4,39.9,6.7,53
			c4.4,6.4,9.7,13.6,16.6,13.3c6.7-0.3,9.2-4.3,17.2-4.3c8,0,10.3,4.3,17.4,4.2c7.2-0.1,11.7-6.5,16.1-12.9c5.1-7.4,7.2-14.6,7.3-15
			c-0.2-0.1-14-5.4-14.1-21.3c-0.1-13.3,10.9-19.7,11.4-20C-585,685.7-594.6,684.7-598,684.5z"/>
		<path d="M-603.3,675.8c3.7-4.4,6.2-10.6,5.5-16.8c-5.3,0.2-11.7,3.5-15.5,8c-3.4,3.9-6.4,10.2-5.6,16.3
			C-613,683.7-607,680.3-603.3,675.8z"/>
	</g>
</g>
</svg>
